<svg width="22" height="18" viewBox="0 0 22 18" fill="none" xmlns="http://www.w3.org/2000/svg">
<path d="M11 6.7885L7.85577 3.64425L11 0.5L14.1538 3.64425L11 6.7885ZM0.509766 17.6923V13.9423C0.509766 13.4589 0.673516 13.0497 1.00102 12.7145C1.32852 12.3792 1.7256 12.2051 2.19227 12.1923H5.27502C5.57635 12.1923 5.8626 12.266 6.13377 12.4135C6.40477 12.561 6.6256 12.7668 6.79627 13.0308C7.29227 13.7128 7.90727 14.2435 8.64127 14.623C9.37527 15.0025 10.1615 15.1923 11 15.1923C11.8487 15.1923 12.6416 15.0025 13.3788 14.623C14.1161 14.2435 14.7277 13.7128 15.2135 13.0308C15.4045 12.7668 15.633 12.561 15.899 12.4135C16.165 12.266 16.4403 12.1923 16.725 12.1923H19.8078C20.2846 12.2051 20.6859 12.3792 21.0115 12.7145C21.3372 13.0497 21.5 13.4589 21.5 13.9423V17.6923H15V15.3403C14.4295 15.7763 13.8052 16.1106 13.127 16.3433C12.4487 16.5759 11.7397 16.6923 11 16.6923C10.277 16.6923 9.57543 16.5749 8.89527 16.3403C8.2151 16.1058 7.58652 15.7705 7.00952 15.3345V17.6923H0.509766ZM3.28852 10.8078C2.53218 10.8078 1.88477 10.5385 1.34627 10C0.807766 9.4615 0.538516 8.81408 0.538516 8.05775C0.538516 7.28458 0.807766 6.633 1.34627 6.103C1.88477 5.57283 2.53218 5.30775 3.28852 5.30775C4.06152 5.30775 4.7131 5.57283 5.24327 6.103C5.77343 6.633 6.03852 7.28458 6.03852 8.05775C6.03852 8.81408 5.77343 9.4615 5.24327 10C4.7131 10.5385 4.06152 10.8078 3.28852 10.8078ZM18.7115 10.8078C17.9552 10.8078 17.3078 10.5385 16.7693 10C16.2308 9.4615 15.9615 8.81408 15.9615 8.05775C15.9615 7.28458 16.2308 6.633 16.7693 6.103C17.3078 5.57283 17.9552 5.30775 18.7115 5.30775C19.4845 5.30775 20.1361 5.57283 20.6663 6.103C21.1964 6.633 21.4615 7.28458 21.4615 8.05775C21.4615 8.81408 21.1964 9.4615 20.6663 10C20.1361 10.5385 19.4845 10.8078 18.7115 10.8078Z" fill="#026770"/>
</svg>
