<svg width="18" height="18" viewBox="0 0 18 18" fill="none" xmlns="http://www.w3.org/2000/svg">
<path d="M2.03138 17.0723C1.52622 17.0723 1.09863 16.8973 0.748633 16.5473C0.398633 16.1973 0.223633 15.7697 0.223633 15.2645V1.88002C0.223633 1.37485 0.398633 0.947266 0.748633 0.597266C1.09863 0.247266 1.52622 0.0722656 2.03138 0.0722656H8.73313V1.57227H2.03138C1.95438 1.57227 1.88388 1.60435 1.81988 1.66852C1.75572 1.73252 1.72363 1.80302 1.72363 1.88002V15.2645C1.72363 15.3415 1.75572 15.412 1.81988 15.476C1.88388 15.5402 1.95438 15.5723 2.03138 15.5723H8.73313V17.0723H2.03138ZM12.9544 12.8415L11.9159 11.7568L14.3506 9.32227H5.81988V7.82227H14.3506L11.9159 5.38777L12.9544 4.30302L17.2236 8.57227L12.9544 12.8415Z" fill="#026770"/>
</svg>
