<svg preserveAspectRatio="xMidYMid meet" data-bbox="0 0.002 1392.06 349.508" viewBox="0 0.002 1392.06 349.508" xmlns="http://www.w3.org/2000/svg" data-type="color" role="img" aria-label="Terramo Logo">
    <g>
        <path d="m558.14 80.53 2.21 46.93h-5.61c-1.08-8.26-2.56-14.17-4.43-17.71-3.05-5.71-7.11-9.91-12.18-12.62-5.07-2.71-11.73-4.06-20-4.06h-28.19v152.88c0 12.3 1.33 19.97 3.98 23.02 3.74 4.13 9.49 6.2 17.27 6.2h6.94v5.46h-84.85v-5.46h7.08c8.46 0 14.46-2.56 18-7.67 2.16-3.15 3.25-10.33 3.25-21.54V93.07h-24.05c-9.35 0-15.99.69-19.92 2.07-5.12 1.87-9.5 5.46-13.13 10.77-3.64 5.31-5.81 12.5-6.49 21.54h-5.61l2.36-46.93h163.36Z" fill="#ffffff" data-color="1"></path>
        <path d="M578.95 196.37c-.1 20.07 4.77 35.81 14.61 47.22 9.84 11.41 21.4 17.12 34.68 17.12 8.85 0 16.55-2.43 23.09-7.3 6.54-4.87 12.03-13.21 16.45-25.01l4.57 2.95c-2.07 13.48-8.07 25.75-18 36.82-9.94 11.07-22.38 16.6-37.34 16.6-16.23 0-30.13-6.32-41.69-18.96-11.56-12.64-17.34-29.64-17.34-50.99 0-23.12 5.93-41.15 17.78-54.08 11.85-12.94 26.73-19.4 44.64-19.4 15.15 0 27.6 4.99 37.34 14.98 9.74 9.99 14.61 23.34 14.61 40.07h-93.41Zm0-8.56h62.57c-.49-8.66-1.53-14.76-3.1-18.3-2.46-5.51-6.12-9.84-10.99-12.99-4.87-3.15-9.96-4.72-15.27-4.72-8.17 0-15.47 3.17-21.91 9.52-6.44 6.35-10.21 15.18-11.29 26.49Z" fill="#ffffff" data-color="1"></path>
        <path d="M729.91 141.47v30.4c11.31-20.27 22.92-30.4 34.83-30.4 5.41 0 9.89 1.65 13.43 4.94 3.54 3.3 5.31 7.11 5.31 11.44 0 3.84-1.28 7.08-3.84 9.74-2.56 2.66-5.61 3.98-9.15 3.98s-7.3-1.7-11.58-5.09c-4.28-3.39-7.45-5.09-9.52-5.09-1.77 0-3.69.98-5.76 2.95-4.43 4.04-9 10.68-13.72 19.92v64.78c0 7.48.93 13.13 2.8 16.97 1.28 2.66 3.54 4.87 6.79 6.64 3.25 1.77 7.92 2.66 14.02 2.66v5.31h-69.21v-5.31c6.89 0 12-1.08 15.35-3.25 2.46-1.57 4.18-4.08 5.16-7.53.49-1.67.74-6.44.74-14.31v-52.39c0-15.74-.32-25.11-.96-28.11-.64-3-1.82-5.19-3.54-6.57s-3.86-2.07-6.42-2.07c-3.05 0-6.49.74-10.33 2.21l-1.48-5.31 40.88-16.53h6.2Z" fill="#ffffff" data-color="1"></path>
        <path d="M830.55 141.47v30.4c11.31-20.27 22.92-30.4 34.83-30.4 5.41 0 9.89 1.65 13.43 4.94 3.54 3.3 5.31 7.11 5.31 11.44 0 3.84-1.28 7.08-3.84 9.74-2.56 2.66-5.61 3.98-9.15 3.98s-7.3-1.7-11.58-5.09c-4.28-3.39-7.45-5.09-9.52-5.09-1.77 0-3.69.98-5.75 2.95-4.43 4.04-9 10.68-13.72 19.92v64.78c0 7.48.93 13.13 2.8 16.97 1.28 2.66 3.54 4.87 6.79 6.64 3.25 1.77 7.92 2.66 14.02 2.66v5.31h-69.21v-5.31c6.89 0 12-1.08 15.35-3.25 2.46-1.57 4.18-4.08 5.16-7.53.49-1.67.74-6.44.74-14.31v-52.39c0-15.74-.32-25.11-.96-28.11-.64-3-1.82-5.19-3.54-6.57s-3.86-2.07-6.42-2.07c-3.05 0-6.49.74-10.33 2.21l-1.48-5.31 40.88-16.53h6.2Z" fill="#ffffff" data-color="1"></path>
        <path d="M968.24 261.15c-13.87 10.72-22.58 16.92-26.12 18.59-5.31 2.46-10.97 3.69-16.97 3.69-9.35 0-17.04-3.2-23.09-9.59-6.05-6.39-9.08-14.81-9.08-25.23 0-6.59 1.48-12.3 4.43-17.12 4.03-6.69 11.04-12.99 21.03-18.89 9.98-5.9 26.59-13.08 49.81-21.54v-5.31c0-13.48-2.14-22.73-6.42-27.74-4.28-5.02-10.5-7.53-18.67-7.53-6.2 0-11.12 1.67-14.76 5.02-3.74 3.35-5.61 7.18-5.61 11.51l.29 8.56c0 4.53-1.16 8.02-3.47 10.48-2.31 2.46-5.34 3.69-9.08 3.69s-6.62-1.28-8.93-3.84c-2.31-2.56-3.47-6.05-3.47-10.48 0-8.46 4.33-16.23 12.99-23.32 8.65-7.08 20.81-10.62 36.45-10.62 12 0 21.84 2.02 29.51 6.05 5.8 3.05 10.08 7.82 12.84 14.31 1.77 4.23 2.66 12.89 2.66 25.97v45.89c0 12.89.25 20.78.74 23.69.49 2.9 1.3 4.85 2.43 5.83 1.13.98 2.43 1.48 3.91 1.48 1.57 0 2.95-.34 4.13-1.03 2.07-1.28 6.05-4.87 11.95-10.77v8.26c-11.02 14.76-21.54 22.14-31.58 22.14-4.82 0-8.66-1.67-11.51-5.02-2.85-3.34-4.33-9.05-4.43-17.12Zm0-9.59v-51.5c-14.86 5.9-24.45 10.09-28.78 12.54-7.77 4.33-13.33 8.85-16.68 13.58-3.35 4.72-5.02 9.89-5.02 15.49 0 7.08 2.12 12.96 6.35 17.64 4.23 4.67 9.1 7.01 14.61 7.01 7.48 0 17.31-4.92 29.51-14.76Z" fill="#ffffff" data-color="1"></path>
        <path d="M1065.93 170.25c9.84-9.84 15.64-15.5 17.41-16.97 4.43-3.74 9.2-6.64 14.31-8.71 5.11-2.07 10.18-3.1 15.2-3.1 8.46 0 15.74 2.46 21.84 7.38s10.18 12.05 12.25 21.4c10.13-11.81 18.69-19.55 25.68-23.24 6.98-3.69 14.17-5.53 21.54-5.53s13.55 1.84 19.11 5.53c5.56 3.69 9.96 9.72 13.21 18.08 2.16 5.71 3.25 14.66 3.25 26.86v58.14c0 8.46.64 14.27 1.92 17.41.98 2.17 2.8 4.01 5.46 5.53 2.65 1.53 6.98 2.29 12.98 2.29v5.31h-66.7v-5.31h2.8c5.8 0 10.33-1.13 13.58-3.39 2.26-1.57 3.88-4.08 4.87-7.53.39-1.67.59-6.44.59-14.31v-58.14c0-11.02-1.33-18.79-3.98-23.32-3.84-6.29-9.99-9.44-18.44-9.44-5.22 0-10.45 1.31-15.72 3.91-5.26 2.61-11.63 7.45-19.11 14.53l-.29 1.62.29 6.35v64.49c0 9.25.52 15 1.55 17.27 1.03 2.26 2.97 4.16 5.83 5.68 2.85 1.53 7.72 2.29 14.61 2.29v5.31h-68.32v-5.31c7.48 0 12.62-.88 15.42-2.66 2.8-1.77 4.74-4.43 5.83-7.97.49-1.67.74-6.54.74-14.61v-58.14c0-11.02-1.62-18.94-4.87-23.76-4.33-6.3-10.38-9.44-18.15-9.44-5.31 0-10.58 1.43-15.79 4.28-8.17 4.33-14.46 9.2-18.89 14.61v72.46c0 8.85.61 14.61 1.84 17.27s3.05 4.65 5.46 5.98 7.3 1.99 14.68 1.99v5.31h-66.85v-5.31c6.2 0 10.52-.66 12.98-1.99 2.46-1.33 4.33-3.44 5.61-6.35 1.28-2.9 1.92-8.53 1.92-16.9v-51.65c0-14.85-.44-24.45-1.33-28.78-.69-3.25-1.77-5.48-3.25-6.72-1.48-1.23-3.49-1.84-6.05-1.84-2.76 0-6.05.74-9.89 2.21l-2.21-5.31 40.73-16.53h6.35v28.78Z" fill="#ffffff" data-color="1"></path>
        <path d="M1326.98 141.47c20.46 0 36.89 7.77 49.29 23.32 10.52 13.28 15.79 28.53 15.79 45.75 0 12.1-2.9 24.35-8.71 36.75-5.81 12.4-13.8 21.74-23.98 28.04-10.18 6.29-21.52 9.44-34.01 9.44-20.37 0-36.55-8.12-48.55-24.35-10.13-13.67-15.2-29.02-15.2-46.04 0-12.4 3.07-24.72 9.22-36.97s14.24-21.3 24.28-27.15c10.03-5.85 20.66-8.78 31.87-8.78Zm-4.58 9.59c-5.21 0-10.45 1.55-15.72 4.65-5.26 3.1-9.52 8.54-12.76 16.31-3.25 7.77-4.87 17.76-4.87 29.96 0 19.68 3.91 36.65 11.73 50.91 7.82 14.27 18.13 21.4 30.92 21.4 9.54 0 17.41-3.93 23.61-11.81 6.2-7.87 9.3-21.4 9.3-40.58 0-24-5.17-42.89-15.5-56.67-6.99-9.44-15.89-14.17-26.71-14.17Z" fill="#ffffff" data-color="1"></path>
        <path d="M227.15 1.99c.31-.72-.02-1.55-.73-1.87-.72-.31-1.56.01-1.87.74l-15.46 35.56c-18.06-7.69-37.93-11.96-58.8-11.96C67.29 24.45 0 91.74 0 174.74c0 61.25 36.66 113.92 89.23 137.33l-15.41 35.45c-.31.72.02 1.56.73 1.87a1.416 1.416 0 0 0 1.87-.73l15.66-36.02c2.27.96 4.57 1.89 6.89 2.75l.59-1.6c-2.28-.84-4.55-1.76-6.8-2.71l27.04-62.19c.87.36 1.73.73 2.61 1.06l.09.03s.07.03.11.04c.02 0 .04.01.06.02h.03c.03.01.05.02.08.03h.02c.02 0 .03.01.05.02h.02s.03.01.05.02h.15s.01 0 .02.01.01 0 .02.01h.13s.02 0 .03.01h.05s.02 0 .03.01 0 0 .01 0h.02s.03.01.04.02.01 0 .02 0h.02s.04.01.06.02h.02c.05.02.1.04.15.05s.01 0 .02 0c1.06.37 2.13.72 3.21 1.05l.5-1.64c-2.42-.73-4.81-1.6-7.15-2.58L227.15 1.99ZM105.58 174.74c0-24.65 20.06-44.71 44.71-44.71 5.9 0 11.53 1.16 16.68 3.24l-35.62 81.93c-15.2-7.14-25.77-22.58-25.77-40.46Zm-70.05 0c0-1.59.02-3.19.08-4.78.03-.86.08-1.72.13-2.58 1.09-17.49 6.28-34.71 15.05-49.88 9.75-16.89 23.81-31.19 40.52-41.24 17.72-10.65 38.3-16.34 58.98-16.34 15.83 0 30.89 3.28 44.62 9.1 0 0-13.79 31.72-13.79 31.71.32-1.09-14.52-4.46-16.05-4.75-11.23-2.19-23.62-1.75-34.69 1.07a79.961 79.961 0 0 0-26.56 12.34c-15.98 11.38-27.46 28.55-31.77 47.7a80.476 80.476 0 0 0-1.95 17.64c0 32.48 19.32 60.43 47.08 73.04l-13.8 31.73c-.14.33-12.52-6.58-13.61-7.26a115.37 115.37 0 0 1-12.69-9.15c-8.02-6.66-15.14-14.4-21.09-22.95-13.21-18.98-20.38-42.2-20.46-65.4Z" fill="#ffffff" data-color="1"></path>
        <path d="m184.9 245.34.75 1.54s.02-.01.03-.02c.01 0 .02-.01.04-.02h.01c.01 0 .02-.01.04-.02 0 0 .02 0 .03-.02h.01c.01 0 .02-.01.03-.02s.02 0 .03-.01h.01c.01 0 .02-.01.03-.02h.01s.02 0 .03-.01h.01c.01 0 .02-.01.03-.02h.01s.02 0 .02-.01h.01s.02-.01.03-.02h.01s.02 0 .03-.01h.01s.02 0 .03-.01h.01c.01 0 .02-.01.03-.02h.01s.01 0 .02-.01h.02s.02-.01.03-.02h.02c.02 0 .01 0 .02-.01h.02s.02-.01.03-.02h.02s.01 0 .02-.01h.01s.02 0 .03-.01h.02s.01 0 .02-.01c0 0 .01 0 .02-.01h.02s.01-.02.02-.02c0 0 .01 0 .02-.01 0 0 .02 0 .02-.01h.06s.01-.02.02-.02h.04s.02 0 .03-.01h.04s.02 0 .03-.01h.06s.02-.01.03-.02h.06s.02-.01.03-.02h.01s.01 0 .02-.01h.02s.02-.02.03-.02h.02s.01 0 .02-.01c0 0 .01 0 .02-.01 0 0 .02 0 .03-.01h.01s.01 0 .02-.01c0 0 .02 0 .03-.01 0 0 .01 0 .02-.01h.01c.01 0 .02-.01.03-.02h.01s.01 0 .02-.01h.01c.01 0 .02-.01.03-.02h.01s.01 0 .02-.01h.02c.01 0 .02-.01.03-.02h.01s.01 0 .02-.01c.01 0 .02-.01.04-.02h.01c.02-.01.05-.02.07-.04h.01c.01 0 .03-.01.04-.02 0 0 .01 0 .02-.01h.01c.01 0 .02-.01.04-.02h.01s.01 0 .02-.01.02-.02.04-.03h.01s.01 0 .02-.01h.01c.01 0 .02-.01.04-.02h.01c.02-.01.05-.03.07-.04h.01c.01 0 .03-.01.04-.02 0 0 .02 0 .02-.01.01 0 .03-.01.04-.02 0 0 .01 0 .02-.01s.02-.02.04-.03h.01s.01 0 .02-.01c.01 0 .03-.01.04-.02.02-.01.05-.03.07-.04h.01c.01 0 .03-.02.04-.02 0 0 .01 0 .02-.01h.01c.01 0 .02-.01.04-.02h.01s.01 0 .02-.01h.01c.01 0 .02-.01.03-.02h.01s.01 0 .02-.01h.01c.01 0 .02-.01.04-.02h.01s.01 0 .02-.01c0 0 .01 0 .02-.01.01 0 .02 0 .03-.02h.01s.01 0 .02-.01c0 0 .02-.01.03-.01h.02s0-.02.01-.02.02 0 .03-.02h.02s.01 0 .02-.01h.02s.02-.01.03-.02h.01s.01 0 .02-.01h.01l.03-.03h.01s.01 0 .02-.01c0 0 .01 0 .02-.01.01 0 .02 0 .03-.01h.02s.01 0 .02-.01c0 0 .02-.01.03-.02 0 0 .01 0 .02-.01h.01s.02-.01.03-.02c0 0 .01 0 .02-.01h.02s0-.02.01-.02.02-.01.03-.02h.02s.01 0 .02-.01h.02s.02-.01.03-.02h.02s.01 0 .02-.01c0 0 .01 0 .02-.01 0 0 .02-.01.03-.02h.02s.01 0 .02-.01c0 0 .02-.01.03-.02h.02s.01 0 .02-.01h.02l.03-.02s.01 0 .02-.01h.02s.02 0 .02-.01c0 0 .01 0 .02-.01h.02s.01 0 .02-.01c0 0 .02 0 .02-.01 0 0 .01 0 .02-.01h.02s.01 0 .02-.01c0 0 .01 0 .02-.01 0 0 .01 0 .02-.01h.02s.02-.01.03-.02h.04s0-.02.02-.02c0 0 .02-.01.03-.02h.01s.01 0 .02-.01h.01c.01 0 .02-.01.03-.02h.01s.01 0 .02-.01c0 0 .01 0 .02-.01 0 0 .02 0 .03-.01h.01s.02 0 .02-.01c0 0 .01 0 .02-.01 0 0 .01 0 .02-.01h.01s.02-.01.03-.02h.02s.01 0 .02-.01h.01c.01 0 .02-.01.03-.02h.01s.02 0 .03-.01h.01c.01 0 .02-.01.03-.02h.01s.02 0 .02-.01h.01c.01 0 .02-.01.03-.02h.01s.02-.01.03-.02h.01s.02-.01.03-.02h.01s.02-.01.03-.02h.01s.02-.01.03-.02h.01c.01 0 .02-.01.03-.02h.01s.02-.01.03-.02h.01c.01 0 .02-.01.03-.02 0 0 .02-.01.03-.02.01 0 .02-.01.03-.02h.01s.02-.01.03-.02c.01 0 .02-.01.03-.02h.01c.01 0 .02-.01.03-.02.01 0 .02-.01.03-.02.01 0 .02-.01.03-.02 0 0 .02-.01.03-.02l.03-.02s.02-.01.03-.02.02-.02.03-.02c.01 0 .02-.01.03-.02.01 0 .02-.01.04-.02s.05-.03.07-.04c.01 0 .02-.01.04-.02.01 0 .02-.01.04-.02.01 0 .02-.01.04-.02s.02-.02.03-.02c.01 0 .02-.01.04-.02.01 0 .02-.01.03-.02.01 0 .02-.01.04-.02s.05-.03.07-.05.05-.03.08-.05c.01 0 .03-.02.04-.02s.03-.02.04-.02.03-.02.04-.02.05-.03.08-.05c.03-.02.05-.03.08-.05s.05-.03.08-.05.05-.03.08-.05c1.25-.77 2.48-1.57 3.69-2.4l-.98-1.41a79.752 79.752 0 0 1-10.14 5.94Z" fill="#ffffff" data-color="1"></path>
        <path d="m162.54 252.35.26 1.7c.79-.12 1.56-.25 2.34-.4s.02 0 .03 0c.02 0 .04 0 .06-.01s.02 0 .03 0c.02 0 .04 0 .06-.01h.68c.02 0 .04 0 .06-.01s.01 0 .02 0 .06-.01.09-.02c2.79-.56 5.53-1.26 8.2-2.1l-.51-1.64a78.763 78.763 0 0 1-11.44 2.66Z" fill="#ffffff" data-color="1"></path>
        <path d="m204.18 232.02 1.18 1.25c2.92-2.74 5.64-5.7 8.12-8.84l-1.35-1.06c-2.42 3.07-5.1 5.98-7.95 8.66Z" fill="#ffffff" data-color="1"></path>
        <path d="M224.96 144.93a82.08 82.08 0 0 0-2.33-5.25s-.03-.06-.04-.08l-.04-.08v-.02c0-.02-.02-.04-.03-.06v-.02c-.01-.03-.03-.05-.04-.08s0-.02 0-.02c0-.02-.02-.04-.03-.06v-.02c-.01-.03-.03-.05-.04-.08s-.03-.06-.04-.08v-.02c0-.02-.02-.04-.03-.06v-.04l-.03-.06v-.02c0-.02-.02-.04-.03-.05v-.02c0-.02-.02-.04-.03-.06s0-.01 0-.02v-.02s-.01-.03-.02-.04v-.02c0-.02-.02-.03-.03-.05v-.03s0-.02-.01-.03v-.03s0-.02-.01-.03v-.05l-.02-.04v-.11s0-.02-.01-.03v-.14s0-.01-.01-.02v-.04s0-.02-.01-.03v-.05s0-.01-.01-.02c0 0 0-.01-.01-.02v-.02s0-.01-.01-.02c0 0 0-.02-.01-.02v-.04s0-.02-.01-.02c0 0 0-.01-.01-.02 0 0 0-.01-.01-.02 0-.02-.02-.03-.03-.05 0 0 0-.01-.01-.02 0 0 0-.01-.01-.02 0 0 0-.02-.01-.03 0 0 0-.01-.01-.02 0 0 0-.01-.01-.02 0-.02-.02-.03-.03-.05 0 0 0-.01-.01-.02-.01-.03-.03-.05-.04-.08-.01-.03-.03-.05-.04-.08s-.03-.05-.04-.08a77.56 77.56 0 0 0-1.58-2.81l-1.48.87c1.98 3.37 3.73 6.92 5.18 10.54l1.59-.64Z" fill="#ffffff" data-color="1"></path>
        <path d="m227.13 191.77 1.68.37c.29-1.3.54-2.61.76-3.93s0-.02 0-.02 0-.05.01-.07 0-.02 0-.02c0-.02 0-.04.01-.07v-.02s0-.04.01-.07 0-.01 0-.02v-4.09c.1-.97.18-1.95.25-2.93l-1.71-.12c-.26 3.91-.82 7.82-1.66 11.63Z" fill="#ffffff" data-color="1"></path>
        <path d="m228.72 168.38 1.71-.14c-.33-4.04-.95-8.01-1.86-11.86l-1.67.39c.89 3.8 1.5 7.7 1.82 11.61Z" fill="#ffffff" data-color="1"></path>
        <path d="M150.48 253.27c-3.81 0-7.64-.28-11.38-.82l-.25 1.7c1.63.24 3.28.43 4.95.56.08 0 .17.01.25.02s.04 0 .06 0h5.73v-1.72h-.35Z" fill="#ffffff" data-color="1"></path>
        <path d="M187.97 103.83c-1.07-.57-2.16-1.11-3.26-1.63l-.73 1.55c3.53 1.67 6.97 3.62 10.22 5.8l.96-1.43c-.73-.49-1.47-.97-2.22-1.44-.02-.02-.05-.03-.07-.05-.02-.02-.05-.03-.07-.05-.03-.02-.05-.03-.07-.05-.04-.03-.08-.05-.12-.08-.02-.01-.05-.03-.07-.04-.02-.01-.05-.03-.07-.04l-.07-.04c-.01 0-.03-.02-.04-.02 0 0-.01 0-.02-.01-.01 0-.02-.01-.04-.02h-.01s-.01 0-.02-.01-.02-.02-.04-.03h-.01s-.01 0-.02-.01c0 0-.01 0-.02-.01 0 0-.02-.01-.03-.02h-.01c-.01 0-.03-.02-.04-.03s-.01-.01-.02-.01h-.01l-.03-.03h-.01s-.01 0-.02-.01H192l-.03-.03h-.01s-.01 0-.02-.01h-.01c-.01 0-.02-.01-.03-.02h-.01s-.01 0-.02-.01h-.02c-.01 0-.02-.01-.03-.02h-.01s-.01 0-.02-.01c0 0-.02-.01-.03-.02 0 0-.01 0-.02-.01h-.02s-.02-.01-.03-.02c0 0-.01 0-.02-.01 0 0-.01 0-.02-.01h-.01l-.03-.03s-.01 0-.02-.01h-.02s-.01 0-.02-.01c0 0-.02 0-.02-.01 0 0-.01 0-.02-.01 0 0-.01 0-.02-.01 0 0-.01 0-.02-.01l-.02-.01s-.01 0-.02-.01h-.02s-.02-.01-.03-.02h-.01s-.01 0-.02-.01h-.01s-.02-.01-.03-.02h-.02c-.02 0-.01 0-.02-.01h-.02s-.02-.01-.03-.02h-.02s-.01 0-.02-.01c0 0-.01 0-.02-.01 0 0-.02 0-.02-.01h-.02s-.02 0-.02-.01c0 0-.01 0-.02-.01 0 0-.01 0-.02-.01h-.01s-.02-.01-.03-.02h-.01s-.01 0-.02-.01h-.02l-.03-.02h-.01s-.01 0-.02-.01h-.01s-.02-.01-.03-.02h-.02s-.01 0-.02-.01-.01 0-.02-.01c0 0-.01 0-.02-.01h-.02s-.02 0-.02-.01c0 0-.01 0-.02-.01 0 0-.02 0-.02-.01h-.01s-.02-.01-.03-.02h-.02s-.01 0-.02-.01h-.01s-.02-.01-.03-.02h-.01s-.01 0-.02-.01h-.01s-.02-.01-.03-.02h-.01s-.01-.02-.02-.02h-.01s-.02-.01-.03-.02h-.01s-.01 0-.02-.01c0 0-.01 0-.02-.01 0 0-.02 0-.02-.01h-.02s-.02 0-.03-.01h-.04l-.01-.02c-.01 0-.02-.01-.03-.02h-.01s-.01 0-.02-.01h-.02s-.02-.01-.03-.02h-.01s-.01 0-.02-.01h-.01s-.02-.01-.03-.02h-.02s-.01 0-.02-.01c0 0-.01 0-.02-.01 0 0-.02 0-.02-.01H190s-.01 0-.02-.01c0 0-.01 0-.02-.01 0 0-.01 0-.02-.01h-.01s-.02 0-.03-.01c0 0-.01 0-.02-.01 0 0-.01 0-.02-.01s0 0-.02 0c0 0-.02-.01-.03-.02h-.02s-.01 0-.02-.01h-.01c-.01 0-.02-.01-.03-.02h-.01s-.01 0-.02-.01h-.02l-.03-.02h-.02s-.01 0-.02-.01c0 0-.02 0-.02-.01 0 0-.01 0-.02-.01h-.02s-.01 0-.02-.01c0 0-.02 0-.02-.01 0 0-.01 0-.02-.01h-.02s-.02 0-.02-.01c0 0-.01 0-.02-.01h-.04s-.02-.01-.03-.02h-.06s-.02-.01-.03-.02c0 0-.01 0-.02-.01h-.02c-.01 0-.02-.01-.03-.02h-.02s-.01 0-.02-.01h-.02s-.02-.01-.03-.02h-.02s-.01 0-.02-.01h-.02c-.01 0-.02-.01-.03-.02h-.01s-.01 0-.02-.01c0 0-.01 0-.02-.01 0 0-.02 0-.02-.01h-.01c-.01 0-.02-.01-.03-.02h-.02s-.01 0-.02-.01h-.01c-.01 0-.02-.01-.03-.02h-.01l-.02-.02h-.01c-.01 0-.02-.01-.04-.02h-.01s-.01 0-.02-.01h-.01c-.01 0-.02-.01-.04-.02h-.01l-.02-.02c-.02 0-.03-.02-.05-.02-.02-.01-.05-.03-.07-.04-.02 0-.03-.02-.05-.03 0 0-.01 0-.02-.01-.02-.01-.05-.03-.08-.04-.02 0-.03-.02-.05-.03-.03-.01-.05-.03-.08-.04s-.05-.03-.08-.04Z" fill="#ffffff" data-color="1"></path>
        <path d="m211.49 125.37 1.33-1.08c-.06-.08-.13-.16-.2-.24s-.04-.05-.06-.07a.435.435 0 0 1-.06-.07.18.18 0 0 1-.05-.07c-.01-.02-.02-.03-.03-.04l-.02-.02s-.02-.03-.04-.04c-.02-.02-.04-.04-.05-.06-.02-.02-.04-.04-.05-.06 0-.01-.02-.03-.03-.04l-.02-.02c0-.01-.02-.03-.03-.04l-.02-.02c-.01-.01-.02-.03-.03-.04-.02-.02-.03-.04-.05-.06s-.02-.03-.03-.04c0 0 0-.01-.02-.02 0-.01-.02-.02-.03-.03 0 0 0-.01-.02-.02 0-.01-.02-.02-.03-.03s-.03-.05-.05-.07v-.01s-.01-.02-.02-.03l-.01-.01s0-.01-.01-.02l-.01-.01s-.01-.02-.02-.03l-.01-.01s0-.01-.01-.02l-.01-.01s-.01-.02-.02-.02l-.01-.01s0-.01-.01-.02c0 0 0-.01-.01-.02 0 0-.01-.02-.02-.02 0 0 0-.01-.01-.02l-.01-.01s-.01-.02-.02-.02l-.01-.02s0-.01-.01-.02c0 0-.01-.01-.01-.02 0 0-.01-.02-.02-.02l-.01-.02s0-.01-.01-.02l-.02-.02-.02-.02s0-.01-.01-.01l-.02-.02-.02-.02s0-.01-.01-.02l-.01-.01s-.01-.02-.02-.03l-.01-.01-.02-.02-.01-.01s-.02-.02-.02-.03v-.01l-.02-.02v-.01s-.02-.02-.02-.03v-.01s-.01-.02-.02-.02v-.01s-.01-.02-.02-.02v-.01s-.02-.02-.02-.03c0 0-.01-.02-.02-.02 0 0-.02-.02-.02-.03 0 0-.01-.02-.02-.02 0 0-.02-.02-.02-.03v-.01s-.01-.02-.02-.02l-.03-.03s-.02-.02-.02-.03c0 0-.01-.02-.02-.03v-.01s-.02-.02-.02-.03c0 0-.01-.02-.02-.03 0-.01-.02-.02-.03-.03 0 0-.02-.02-.02-.03 0-.01-.02-.02-.03-.03 0-.01-.02-.02-.03-.03l-.03-.03c0-.01-.02-.02-.03-.03l-.03-.03c0-.01-.02-.02-.03-.03l-.03-.03s-.02-.02-.03-.04a.435.435 0 0 1-.06-.07s-.04-.05-.06-.07l-.06-.07s-.06-.07-.09-.11c-1.79-1.99-3.67-3.9-5.65-5.7l-1.16 1.27c2.89 2.64 5.6 5.52 8.06 8.55Z" fill="#ffffff" data-color="1"></path>
        <path d="M224.8 205.01v-.18s0-.02.01-.03v-.04c0-.02.01-.03.02-.05v-.05c0-.02.01-.04.02-.05.01-.03.02-.05.03-.08s0-.02.01-.03l.3-.78-1.6-.62c-1.4 3.64-3.1 7.21-5.04 10.61l1.49.85a78.48 78.48 0 0 0 1.88-3.5s.03-.06.04-.08c.03-.06.06-.13.09-.19s.06-.13.09-.19c.64-1.29 1.25-2.59 1.82-3.92.02-.06.05-.12.07-.17.07-.16.14-.32.2-.48s.02-.06.04-.09 0-.02 0-.02c.01-.03.02-.06.04-.08s0-.02 0-.02.01-.03.02-.04 0-.01 0-.02v-.02c0-.02.02-.04.02-.06v-.02c0-.02.02-.04.02-.06v-.04c0-.01 0-.02.01-.03v-.04c0-.02.01-.03.02-.05v-.25Z" fill="#ffffff" data-color="1"></path>
        <path d="m286.44 233.37 1.57.68c.81-1.87 1.58-3.76 2.31-5.67.03-.07.05-.14.08-.21 0-.02.01-.03.02-.05.01-.04.03-.07.04-.1 0-.02 0-.03.02-.05v-.01c0-.01 0-.03.01-.04v-.01c0-.02.01-.03.02-.05a.3.3 0 0 1 .04-.1v-.01s0-.03.01-.04v-.02s0-.03.01-.03v-.02c0-.01 0-.03.01-.04 0-.02.01-.03.02-.05v-.02s0-.02.01-.03v-.02s0-.02.01-.03v-.07c0-.02 0-.03.02-.04v-.15s0-.02.01-.03v-.01c0-.02.02-.05.03-.07s0-.03.01-.04v-.01c0-.01 0-.02.01-.03v-.01c0-.01 0-.02.01-.04s.03-.09.05-.13 0-.03.01-.04 0-.03.01-.05c.46-1.26.91-2.52 1.34-3.79l-1.62-.55a145.29 145.29 0 0 1-4.24 11.01Z" fill="#ffffff" data-color="1"></path>
        <path d="M110.33 319.03c.36.1.71.2 1.07.29.05.02.11.03.17.05h.16c.01 0 .02 0 .04.01h.07s.03 0 .04.01h.01c.04 0 .07.02.11.03.02 0 .03 0 .05.01.02 0 .03 0 .05.01 2.94.78 5.92 1.47 8.94 2.07.02 0 .04 0 .05.01l.17.03h.05c.02 0 .03 0 .05.01s.04 0 .06.01.03 0 .05.01h.1c.02 0 .03 0 .05.01h.27l.32-1.67c-3.85-.74-7.71-1.65-11.49-2.7l-.46 1.64Z" fill="#ffffff" data-color="1"></path>
        <path d="m294.01 211.04 1.65.42.51-2.07c.01-.06.03-.12.04-.17v-.3c0-.02 0-.03.01-.04 0-.02 0-.03.01-.05 0-.02 0-.03.01-.05 0-.02 0-.03.01-.05.01-.06.02-.11.04-.17.49-2.11.93-4.24 1.32-6.39v-.05c.01-.06.02-.11.03-.16v-.36s0-.06.01-.08v-.12l.03-.18.24-1.39-1.68-.28c-.65 3.87-1.47 7.75-2.42 11.55Z" fill="#ffffff" data-color="1"></path>
        <path d="m275.39 254.2 1.44.92c2.13-3.35 4.14-6.79 6.01-10.31l-1.51-.8c-1.83 3.46-3.83 6.89-5.94 10.19Z" fill="#ffffff" data-color="1"></path>
        <path d="M288.98 117.79c-.14-.34-.29-.69-.43-1.03s0-.03-.02-.04 0-.03-.01-.05c-.02-.04-.03-.08-.05-.12s0-.03-.01-.04v-.02s0-.02-.01-.03v-.02s0-.02-.01-.03c0 0 0-.02-.01-.03v-.02c0-.02-.01-.03-.02-.05v-.02s0-.02-.01-.03v-.02s0-.02-.01-.03v-.02s-.01-.03-.02-.04-.03-.08-.04-.11c0-.02-.01-.03-.02-.04 0-.02-.01-.03-.02-.04a147.3 147.3 0 0 0-2.97-6.51s-.01-.03-.02-.05c0-.02-.01-.03-.02-.04-.02-.05-.05-.1-.07-.15 0-.02-.01-.02-.02-.04v-.01c0-.01-.01-.03-.02-.04v-.01c0-.02-.01-.03-.02-.04 0-.02-.01-.03-.02-.05v-.01c0-.01-.01-.02-.02-.04v-.02s-.01-.02-.02-.03v-.02s-.01-.02-.02-.03v-.02c0-.02-.01-.03-.02-.04v-.02s0-.02-.01-.03c0 0 0-.02-.01-.02 0 0 0-.01-.01-.02 0 0 0-.02-.01-.03v-.02s0-.02-.01-.03v-.02c-.02-.03-.03-.07-.05-.1v-.01c0-.01 0-.02-.01-.03v-.01c0-.01-.01-.02-.02-.03-.02-.04-.04-.08-.06-.11s-.01-.03-.02-.04c0-.01-.01-.03-.02-.04-.21-.42-.41-.84-.63-1.25l-1.52.77c1.78 3.49 3.44 7.1 4.93 10.72l1.58-.65Z" fill="#ffffff" data-color="1"></path>
        <path d="M296.26 140.5v-.1c0-.04-.02-.07-.02-.11v-.12c0-.02 0-.03-.01-.05 0-.02 0-.03-.01-.05v-.17c0-.02 0-.03-.01-.05v-.18c0-.02 0-.03-.01-.05v-.07s0-.02-.01-.03v-.02s-.01-.02-.01-.03v-.02c0-.02 0-.03-.01-.05v-.65s-.01-.03-.02-.05v-.17c0-.02 0-.03-.01-.05v-.17c0-.01 0-.03-.01-.04v-.18c0-.02 0-.03-.01-.05 0-.02 0-.03-.01-.04v-.17c0-.02 0-.03-.01-.05v-.14c0-.01 0-.03-.01-.04 0-.02 0-.03-.01-.05v-.18c0-.02 0-.03-.01-.05v-.13c0-.01 0-.03-.01-.04 0-.02 0-.03-.01-.05 0-.02 0-.03-.01-.05v-.06c0-.02 0-.03-.01-.04 0-.04-.02-.07-.03-.11 0-.02 0-.03-.01-.04v-.05h-.01c0-.04-.02-.07-.03-.11 0-.02 0-.03-.01-.05v-.01c0-.02 0-.03-.01-.05 0-.04-.02-.07-.03-.11 0-.02 0-.03-.01-.05 0-.02 0-.03-.01-.05-.01-.06-.03-.11-.04-.16 0-.02 0-.03-.01-.05-.01-.06-.03-.11-.04-.17 0-.02 0-.03-.01-.05-.01-.06-.03-.11-.04-.16 0-.02 0-.03-.01-.05-.25-.93-.51-1.85-.78-2.78 0-.02-.01-.04-.02-.05-.02-.06-.03-.11-.05-.16 0-.02 0-.03-.01-.05-.02-.06-.03-.11-.05-.16 0-.02 0-.03-.01-.05 0-.02 0-.03-.01-.05s-.02-.07-.03-.11c0-.01 0-.03-.01-.04v-.01c0-.02 0-.02-.01-.04l-.03-.11c0-.01 0-.03-.01-.04v-.01s0-.03-.01-.04v-.01c-.01-.04-.02-.06-.03-.1v-.17c0-.02 0-.03-.01-.05v-.14l-.03-.11v-.01c0-.01 0-.02-.01-.03s0-.04-.01-.05c-.02-.06-.03-.11-.05-.17-.19-.63-.38-1.25-.58-1.86l-1.62.52c1.19 3.73 2.25 7.56 3.15 11.37l1.66-.39Z" fill="#ffffff" data-color="1"></path>
        <path d="M298.49 176c-.03 3.93-.22 7.89-.56 11.79l1.7.15v-.52c0-.06 0-.12.01-.18.26-3.12.42-6.27.48-9.44s0-.04 0-.05v-1.74h-1.71Z" fill="#ffffff" data-color="1"></path>
        <path d="M299.83 164.08v-1.42s0-.09-.01-.14v-.04c-.16-1.97-.36-3.92-.59-5.86s0-.03 0-.04v-.05s-.01-.09-.02-.13v-.73c0-.04 0-.07-.01-.11v-.1c-.14-1.08-.29-2.16-.45-3.23l-1.69.25c.58 3.87 1.02 7.81 1.29 11.73l1.7-.12Z" fill="#ffffff" data-color="1"></path>
        <path d="M278.17 96.53c-.26-.43-.53-.86-.8-1.28 0-.01-.02-.03-.02-.04v-.01c0-.01-.02-.02-.02-.04s-.02-.03-.03-.05c0-.02-.02-.03-.03-.04 0 0 0-.01-.01-.02 0 0-.01-.02-.02-.03 0 0 0-.01-.01-.02 0 0 0-.01-.01-.02 0 0 0-.01-.01-.02 0 0 0-.02-.01-.02-.03-.05-.06-.09-.09-.14 0-.01-.01-.02-.02-.04-1.76-2.78-3.6-5.49-5.53-8.13l-1.38 1.01c2.31 3.17 4.52 6.47 6.57 9.8l1.45-.89Z" fill="#ffffff" data-color="1"></path>
        <path d="m180.91 319.64.35 1.67h.1c.02 0 .03 0 .05-.01h.2c.02 0 .03 0 .05-.01h.13l.11-.03c.02 0 .03 0 .05-.01.02 0 .03 0 .05-.01.06-.01.11-.02.17-.04.02 0 .04 0 .05-.01 3.58-.77 7.1-1.67 10.58-2.7l-.48-1.64c-3.76 1.11-7.61 2.07-11.44 2.87Z" fill="#ffffff" data-color="1"></path>
        <path d="m261.17 273.02 1.27 1.13c.42-.47.83-.94 1.24-1.41.01-.01.02-.02.03-.04.01-.01.02-.02.03-.04.02-.03.05-.05.07-.08.01-.01.02-.02.03-.04l.03-.03c.01-.01.02-.02.03-.04.02-.03.05-.05.07-.08l.03-.03v-.01l.03-.03v-.01c0-.01.02-.02.03-.03a.5.5 0 0 1 .07-.08l.01-.01s.02-.02.02-.03l.01-.01s.01-.02.02-.02c0 0 0-.01.01-.02 0 0 .01-.02.02-.03l.01-.01c.01-.01.02-.02.03-.04 0-.01.02-.02.03-.03l.01-.01s.02-.02.02-.03c0 0 0-.01.01-.02 0 0 .01-.02.02-.02 0 0 0-.01.01-.02 0-.01.01-.01.02-.03l.01-.01c.01-.01.02-.02.03-.04l.02-.02s.01-.01.01-.02c0 0 .01-.02.02-.02 0 0 0-.01.01-.02l.02-.02.01-.02.02-.02s.01-.01.01-.02c.02-.03.05-.06.07-.08v-.01s.01-.02.02-.02l.01-.01s.01-.02.02-.03v-.01s.02-.02.02-.03.05-.07.08-.1c0 0 .02-.02.02-.03 0 0 .02-.02.02-.03 0-.01.02-.02.02-.03s.06-.07.09-.1c0 0 .02-.02.02-.03s.02-.03.02-.04c.04-.05.08-.09.11-.14 0-.01.02-.02.03-.03s.02-.03.02-.04c.04-.05.08-.09.12-.14s.02-.02.03-.03l.15-.18c0-.01.02-.02.03-.03l.15-.18c0-.01.02-.02.03-.03.11-.13.22-.27.32-.4s.02-.03.03-.04l.11-.14s.02-.02.02-.03c0 0 .02-.02.02-.03l.11-.14s.02-.02.03-.04.02-.03.02-.04l.11-.14s.02-.02.02-.03.02-.03.02-.04l.11-.14c0-.01.02-.02.02-.03s.02-.03.02-.04c.04-.04.07-.09.11-.13 0 0 .01-.02.02-.03 0-.01.02-.02.02-.03l.11-.14s.01-.02.02-.03v-.01s.01-.02.02-.03v-.01c.03-.03.05-.06.08-.1s.02-.02.02-.03v-.01s.01-.02.02-.03c0-.01.02-.02.02-.03s.05-.07.08-.1v-.01s.01-.02.02-.03c0 0 0-.01.01-.01 0 0 .01-.02.02-.03l.01-.01s.01-.02.02-.03c0 0 0-.01.01-.01.02-.03.05-.06.07-.09 0 0 .01-.02.02-.03 0 0 0-.01.01-.01 0 0 .01-.02.02-.02 0 0 0-.01.01-.01 0 0 .01-.02.02-.03v-.01c.02-.02.03-.04.05-.06 0 0 .01-.02.02-.03 0 0 0-.01.01-.01 0 0 .01-.02.02-.02 0 0 0-.01.01-.02l.02-.02c.01-.01 0-.01.01-.02l.02-.02.01-.02c.01-.01.02-.03.03-.04l.01-.01.02-.02s.01-.01.01-.02l.02-.02s0-.01.01-.02l.02-.02s.01-.01.01-.02l.02-.02s.01-.02.02-.02c0-.01.02-.02.02-.03 0-.01.01-.01.02-.03l.02-.02s0-.01.02-.02.01-.01.02-.02 0 0 .01-.02c0 0 .01-.02.02-.02 0 0 0-.01.01-.02l.02-.02.02-.02c0-.01.02-.02.03-.04 0 0 0-.01.02-.02l.02-.02s0-.01.02-.02l.02-.02s0-.01.02-.02l.02-.02.02-.02s0-.01.01-.02c0-.01.01-.01.02-.03 0-.01.02-.02.02-.03l.02-.02.02-.02s0-.01.02-.02l.02-.02.02-.02s0-.01.01-.02c0 0 .01-.02.02-.03l.01-.01c0-.01.02-.02.03-.03l.02-.02c0-.01 0-.01.02-.02 0 0 0-.01.01-.02 0 0 .01-.02.02-.02 0 0 0-.01.01-.02 0 0 .01-.02.02-.02 0 0 0-.01.01-.02l.02-.02s.01-.01.01-.02c.01-.01.02-.02.03-.04l.01-.01c0-.01.01-.02.02-.03 0 0 0-.01.01-.02 0 0 .01-.02.02-.02 0 0 0-.01.01-.02l.02-.02.02-.02s.01-.02.02-.03l.01-.01c.01-.01.02-.02.03-.04 0 0 0-.01.01-.02 0 0 .01-.02.02-.03 0 0 0-.01.01-.02 0 0 .01-.02.02-.02 0 0 0-.01.01-.02 0 0 .01-.02.02-.03l.01-.01c0-.01.01-.02.02-.03s.02-.04.03-.05c0 0 0-.01.01-.02 0 0 .01-.02.02-.03 0 0 0-.01.01-.02 0 0 .01-.02.02-.02 0 0 0-.01.01-.02 0 0 .01-.02.02-.02 0 0 0-.01.01-.02 0-.01.01-.02.02-.03v-.01c.01-.01.02-.02.03-.04l.02-.02s.01-.02.02-.02c0 0 0-.01.01-.02l.02-.02s0-.01.01-.02c0 0 .01-.02.02-.02 0 0 0-.01.01-.02 0-.01 0-.01.02-.02 0 0 .01-.02.02-.03 0-.01.01-.02.02-.03 0 0 0-.01.01-.02 0 0 .01-.02.02-.03 0 0 0-.01.01-.02 0 0 .01-.02.02-.02 0 0 0-.01.01-.02l.02-.02s0-.01.02-.02c0-.01.01-.02.02-.03 0 0 0-.01.01-.02 0-.01.02-.02.02-.03 0 0 0-.01.01-.02l.02-.02s0-.01.01-.02c0 0 0-.01.02-.02 0 0 0-.01.01-.02 0 0 .01-.02.02-.02 0 0 0-.01.01-.02 0-.01.01-.02.02-.03l.02-.02s.01-.02.02-.03c0 0 0-.01.01-.02 0 0 0-.01.01-.02 0 0 .01-.02.02-.02l.01-.02c.01-.02.01-.01.02-.02 0 0 0-.01.02-.02 0 0 0-.01.01-.02 0-.01.02-.02.02-.03l-1.36-1.03c-2.36 3.13-4.88 6.2-7.48 9.13Z" fill="#ffffff" data-color="1"></path>
        <path d="m224.79 302.79.86 1.47c1.45-.85 2.89-1.71 4.31-2.61s.1-.06.15-.1.02-.02.03-.02h.01s.02-.01.03-.02h.01s.02-.01.03-.02h.01c.03-.02.06-.04.1-.06 0 0 .01 0 .02-.01 0 0 .02-.01.02-.02 0 0 .01 0 .02-.01 0 0 .02 0 .02-.01 0 0 .01 0 .02-.01 0 0 .01 0 .02-.01.01 0 .02-.01.03-.02h.01c.02-.01.03-.02.04-.03h.01c.01 0 .02-.01.03-.02h.01s.02-.02.03-.02h.01l.04-.02.09-.06c.02-.01.03-.02.04-.03s.03-.02.04-.03c1.36-.87 2.71-1.76 4.04-2.67.05-.03.09-.06.14-.09.01-.01.03-.02.04-.03.01 0 .02-.02.04-.02.01 0 .02-.02.04-.03.01-.01.03-.02.04-.03 0 0 .02-.02.03-.02 0 0 .01 0 .02-.01 0 0 .01 0 .02-.02 0 0 .01 0 .02-.01 0 0 .01 0 .02-.01 0 0 .02-.01.02-.02 0 0 .01 0 .02-.01l.1-.07.03-.03s.1-.07.15-.11l-.97-1.4c-3.22 2.23-6.57 4.37-9.96 6.33Z" fill="#ffffff" data-color="1"></path>
        <path d="M247.19 60.45c-.15-.13-.31-.26-.46-.39s-.02-.02-.03-.02h-.01s-.02-.01-.03-.02l-.01-.01s-.02-.01-.02-.02l-.01-.01c-.01-.01-.03-.02-.04-.04 0 0-.02-.01-.02-.02l-.02-.02-.02-.02-.02-.02s-.02-.01-.02-.02c0 0-.01 0-.02-.01 0 0-.02-.01-.02-.02h-.01s-.02-.03-.04-.05c-.01 0-.02-.02-.03-.03l-.03-.03a.138.138 0 0 0-.04-.03l-.17-.14c-2.68-2.23-5.44-4.36-8.28-6.4l-1 1.38c3.18 2.29 6.31 4.73 9.3 7.26l1.1-1.3Z" fill="#ffffff" data-color="1"></path>
        <path d="m203.53 312.98.61 1.59c3.72-1.43 7.39-3.01 10.96-4.72l-.74-1.54c-3.54 1.69-7.18 3.26-10.84 4.67Z" fill="#ffffff" data-color="1"></path>
        <path d="M227.82 46.53c-1.1-.67-2.21-1.32-3.33-1.96s-.02-.02-.04-.02l-.15-.09h-.01s-.02-.01-.03-.02c-.01 0-.02-.01-.03-.02-.03-.02-.06-.04-.1-.06 0 0-.02 0-.02-.01 0 0-.01 0-.02-.01 0 0-.01 0-.02-.01 0 0-.01 0-.02-.01 0 0-.01 0-.02-.01 0 0-.01 0-.02-.01 0 0-.02-.01-.03-.02 0 0-.01 0-.02-.01-.02 0-.02-.01-.04-.02h-.02s-.01-.02-.02-.03c0 0-.02 0-.02-.01 0 0-.01 0-.02-.01 0 0-.01 0-.02-.01 0 0-.02 0-.02-.01 0 0-.01 0-.02-.01-.01 0-.02-.01-.04-.02h-.01c-.02 0-.03-.01-.04-.02h-.01s-.02-.01-.03-.02h-.01s-.02-.01-.03-.02h-.01c-.02 0-.02-.01-.04-.02-.02 0-.03-.02-.05-.03l-.04-.02c-.02 0-.02-.01-.04-.02-.02 0-.02-.01-.04-.02s-.1-.06-.15-.08c-.02 0-.03-.02-.05-.03-1.88-1.05-3.78-2.05-5.72-3.01l-.76 1.53c3.5 1.75 6.98 3.67 10.33 5.7l.88-1.46Z" fill="#ffffff" data-color="1"></path>
        <path d="M264.11 77.26c-2.59-3.02-5.3-5.93-8.13-8.74l-1.2 1.21c2.78 2.76 5.48 5.67 8.04 8.64l1.29-1.11Z" fill="#ffffff" data-color="1"></path>
        <path d="m244.17 289.35 1.08 1.32c3.08-2.52 6.06-5.17 8.93-7.92l-1.18-1.23c-2.83 2.71-5.8 5.35-8.83 7.83Z" fill="#ffffff" data-color="1"></path>
        <path d="m133.75 323.55 1.36.15c.06 0 .11.01.17.02h.05c.04 0 .08 0 .11.01h3.74c2.08.15 4.18.26 6.28.33l.05-1.7c-3.92-.12-7.88-.41-11.77-.84l-.19 1.69Z" fill="#ffffff" data-color="1"></path>
        <path d="m157.52 322.6.08 1.7 1.66-.09c.06 0 .11 0 .17-.01h.51c2.15-.13 4.29-.31 6.41-.54s.03 0 .04 0c.04 0 .08 0 .13-.01h.32c.04 0 .07 0 .11-.01h.05c.82-.09 1.64-.19 2.46-.29l-.21-1.69c-3.88.49-7.83.83-11.76 1.02Z" fill="#ffffff" data-color="1"></path>
    </g>
</svg>