<svg width="18" height="18" viewBox="0 0 18 18" fill="none" xmlns="http://www.w3.org/2000/svg">
<path d="M16.5422 17.577L10.2615 11.296C9.76149 11.7088 9.18649 12.0319 8.53649 12.2653C7.88649 12.4986 7.21407 12.6153 6.51924 12.6153C4.81007 12.6153 3.36357 12.0235 2.17974 10.84C0.995908 9.65652 0.403992 8.21035 0.403992 6.50152C0.403992 4.79285 0.995741 3.34618 2.17924 2.16152C3.36274 0.977016 4.80891 0.384766 6.51774 0.384766C8.22641 0.384766 9.67307 0.976682 10.8577 2.16051C12.0422 3.34435 12.6345 4.79085 12.6345 6.50002C12.6345 7.21418 12.5147 7.89627 12.275 8.54627C12.0352 9.19627 11.7152 9.7616 11.3152 10.2423L17.596 16.523L16.5422 17.577ZM6.51924 11.1155C7.80774 11.1155 8.89908 10.6683 9.79324 9.77402C10.6876 8.87985 11.1347 7.78852 11.1347 6.50002C11.1347 5.21152 10.6876 4.12018 9.79324 3.22601C8.89908 2.33168 7.80774 1.88452 6.51924 1.88452C5.23074 1.88452 4.13941 2.33168 3.24524 3.22601C2.35091 4.12018 1.90374 5.21152 1.90374 6.50002C1.90374 7.78852 2.35091 8.87985 3.24524 9.77402C4.13941 10.6683 5.23074 11.1155 6.51924 11.1155Z" fill="#026770"/>
</svg>
